# xmcd
#
# Track frame offsets:
#	183
#	11608
#	24473
#	38773
#	51333
#	72250
#	85583
#	103348
#	116835
#	137208
#	150248
#	168520
#	185060
#	195095
#	211155
#
# Disc length: 3016 seconds
#
# Revision: 0
# Processed by: cddbd v1.4b42PL0 Copyright (c) Steve Scherf et al.
# Submitted via: EasyCDDAExtractor 4.5.0.2
#
DISCID=c50bc60f
DTITLE=Novi Zelenaci Mirka Hofmanna - Vanoce starych kovboju
DYEAR=1900
DGENRE=Country
TTITLE0=Vanoce, vanoce
TTITLE1=Je cas vanocni
TTITLE2=Dabluv darek
TTITLE3=Bilej snih
TTITLE4=Kdyz snezi
TTITLE5=Pisu kratky psani
TTITLE6=Druhy zakon
TTITLE7=Vanocni vlak
TTITLE8=Pastor z Little Fort
TTITLE9=Hadej, kda ja jsem
TTITLE10=Touzila's mit bourak
TTITLE11=Svata noc
TTITLE12=Zacnete snit
TTITLE13=Osudem tvym byl black and white
TTITLE14=Muldou do Klondike
EXTD=
EXTT0=
EXTT1=
EXTT2=
EXTT3=
EXTT4=
EXTT5=
EXTT6=
EXTT7=
EXTT8=
EXTT9=
EXTT10=
EXTT11=
EXTT12=
EXTT13=
EXTT14=
PLAYORDER=
